# xmcd
#
# Track frame offsets:
#	150
#	19682
#	42527
#	70460
#	88625
#	101675
#	121685
#	138045
#
# Disc length: 2102
#
# Revision: 1
# Processed by: cddbd v1.5.1PL0 Copyright (c) Steve Scherf et al.
# Submitted via: dBpowerAMP V4.0
# Normalized: r0:TSWAP
#
DISCID=64083408
DTITLE=Various Artist - Preserving America's Soul
DYEAR=1900
DGENRE=Soul
TTITLE0=John Lee Hooker - Boom Boom
TTITLE1=Alber Collins - Iceman
TTITLE2=Johnny Winter - She Likes To Boogy Real Low
TTITLE3=Terry Evans - Shakespeare Didn't Quote That
TTITLE4=Isaac hayes - Life's Mood
TTITLE5=Larry McCray - Della Hurricane
TTITLE6=John Hammond - Baby How Long
TTITLE7=Pop Staples - America
EXTD=
EXTT0=
EXTT1=
EXTT2=
EXTT3=
EXTT4=
EXTT5=
EXTT6=
EXTT7=
PLAYORDER=
